<?xml version="1.0" encoding="utf-8"?>
<!-- Svg Vector Icons : http://www.onlinewebfonts.com/icon -->
<!DOCTYPE svg PUBLIC "-//W3C//DTD SVG 1.1//EN" "http://www.w3.org/Graphics/SVG/1.1/DTD/svg11.dtd">
<svg version="1.1" xmlns="http://www.w3.org/2000/svg" xmlns:xlink="http://www.w3.org/1999/xlink" x="0px" y="0px" viewBox="0 0 1000 1000" enable-background="new 0 0 1000 1000" xml:space="preserve">
<metadata> Svg Vector Icons : http://www.onlinewebfonts.com/icon </metadata>
<g><path d="M882.6,30.4H288.1c-58.1,0-103.5,46.3-103.5,105.5v64.3h-67.1C58.2,200.2,10,247.5,10,305.6v345.2c0,58.2,48.2,105.5,107.5,105.5h37.4v182.6v1.8v0.5h0.1c0.1,6.8,2.3,13.6,7.2,19.1c5.7,6.2,13.4,9.4,21.3,9.4c6.9,0,13.9-2.5,19.4-7.5l225.9-205.8h265.9l102.7,93.6c5.5,5,12.5,7.5,19.4,7.5c7.8,0,15.6-3.2,21.2-9.4c5-5.4,7.2-12.3,7.3-19.1h0.1v-0.5v-1.8l0-182.6h37.4c59.2,0,107.4-47.3,107.4-105.5V135.8C990,77.7,941.8,30.4,882.6,30.4z M406.3,698.8l-194,176.8l0-176.7l-94.9-0.1c-27.1,0-49.9-22-49.9-47.9l0-345.2c0-26,22.8-47.9,49.9-47.9h67.1v280.9c0,59.1,45.5,105.5,103.5,105.5h283.3l60,54.7L406.3,698.8z M932.5,538.6c0,26-22.8,47.9-49.9,47.9l-94.9,0.1v176.7l-194-176.8H288.1c-25.8,0-46-21.1-46-47.9V135.8c0-26.9,20.2-47.9,46-47.9h594.5c27.1,0,49.9,22,49.9,47.9L932.5,538.6L932.5,538.6z"/></g>
</svg>